<svg xmlns="http://www.w3.org/2000/svg" xmlns:xlink="http://www.w3.org/1999/xlink" width="200" height="200" class="icon" p-id="46818" t="1610107373617" version="1.1" viewBox="0 0 1024 1024"><defs><style type="text/css"/></defs><path fill="#737987" d="M331.2 240c25.6 25.6 25.6 65.6 0 91.2s-65.6 25.6-91.2 0l-44.8-44.8c-25.6-25.6-25.6-65.6 0-91.2s65.6-25.6 91.2 0l44.8 44.8z" opacity=".1" p-id="46819"/><path fill="#737987" d="M192 448c35.2 0 64 28.8 64 64s-28.8 64-64 64H128c-35.2 0-64-28.8-64-64s28.8-64 64-64h64z" opacity=".15" p-id="46820"/><path fill="#737987" d="M240 692.8c25.6-25.6 65.6-25.6 91.2 0 25.6 25.6 25.6 65.6 0 91.2l-44.8 44.8c-25.6 25.6-65.6 25.6-91.2 0s-25.6-65.6 0-91.2l44.8-44.8z" opacity=".3" p-id="46821"/><path fill="#737987" d="M448 832c0-35.2 28.8-64 64-64s64 28.8 64 64v64c0 35.2-28.8 64-64 64s-64-28.8-64-64v-64z" opacity=".45" p-id="46822"/><path fill="#737987" d="M828.8 737.6c25.6 25.6 25.6 65.6 0 91.2s-65.6 25.6-91.2 0L692.8 784c-25.6-25.6-25.6-65.6 0-91.2s65.6-25.6 91.2 0l44.8 44.8z" opacity=".6" p-id="46823"/><path fill="#737987" d="M896 448c35.2 0 64 28.8 64 64s-28.8 64-64 64h-64c-35.2 0-64-28.8-64-64s28.8-64 64-64h64z" opacity=".75" p-id="46824"/><path fill="#737987" d="M737.6 195.2c25.6-25.6 65.6-25.6 91.2 0s25.6 65.6 0 91.2L784 331.2c-25.6 25.6-65.6 25.6-91.2 0-25.6-25.6-25.6-65.6 0-91.2l44.8-44.8z" opacity=".9" p-id="46825"/><path fill="#737987" d="M448 128c0-35.2 28.8-64 64-64s64 28.8 64 64v64c0 35.2-28.8 64-64 64s-64-28.8-64-64V128z" p-id="46826"/></svg>